PathFileType	4	(X/Y/Z)	Patient4_TMGait_0pt7_01_left_34.trc.trc
DataRate	CameraRate	NumFrames	NumMarkers	Units	OrigDataRate	OrigDataStartFrame	OrigNumFrames
86.419753086420	86.419753086420	4	33	mm	86.419753086420	89	       141
Frame#	Time	Sacral			L.Shoulder			Chest			R.Shoulder			Neck			R.ASIS			L.ASIS			R.Thigh.Superior			R.Thigh.Lateral			R.Thigh.Inferior			R.Patella			L.Thigh.Superior			L.Thigh.Lateral			L.Thigh.Inferior			L.Patella			L.Shank.Superior			L.Shank.Lateral			L.Shank.Inferior			R.Shank.Superior			R.Shank.Lateral			R.Shank.Inferior			R.Heel			R.Midfoot.Superior			R.Midfoot.Lateral			R.Toe			L.Heel			L.Midfoot.Lateral			L.Midfoot.Superior			L.Toe			L.Elbow			L.Wrist			R.Elbow			R.Wrist			
		X1	Y1	Z1	X2	Y2	Z2	X3	Y3	Z3	X4	Y4	Z4	X5	Y5	Z5	X6	Y6	Z6	X7	Y7	Z7	X8	Y8	Z8	X9	Y9	Z9	X10	Y10	Z10	X11	Y11	Z11	X12	Y12	Z12	X13	Y13	Z13	X14	Y14	Z14	X15	Y15	Z15	X16	Y16	Z16	X17	Y17	Z17	X18	Y18	Z18	X19	Y19	Z19	X20	Y20	Z20	X21	Y21	Z21	X22	Y22	Z22	X23	Y23	Z23	X24	Y24	Z24	X25	Y25	Z25	X26	Y26	Z26	X27	Y27	Z27	X28	Y28	Z28	X29	Y29	Z29	X30	Y30	Z30	X31	Y31	Z31	X32	Y32	Z32	X33	Y33	Z33	

89	40.258285714286	854.178806011487	1005.375555588009	472.221024326269	1061.299329425938	1423.122227541159	284.346776782222	1152.989373206477	1352.034601163126	452.320603644511	1064.121371043056	1436.983791874023	618.438290563475	1058.729919291227	1486.768531099281	437.600450449074	1075.730085861118	939.008707021128	600.044835159160	1070.987686117958	949.901745006122	325.166922012009	1136.276423664225	750.911323140206	575.261800010854	1063.656243644960	635.243526421320	633.712297338016	1149.840248616128	589.916099403476	557.920568055395	1161.698360938146	500.658436275272	566.626413779823	1092.424643651274	729.122128261577	345.214932055901	993.879140095755	624.371400075266	276.946359177685	1073.410539188116	531.375939154063	330.909526713693	1058.886196972453	448.130444946532	327.214606240343	989.263896157641	395.051943553990	321.950319202078	847.804095865891	352.799210987912	275.996932357439	834.354420227642	223.731712937565	331.702036607490	1137.414150729348	410.871255283704	572.529722780980	1069.216668987717	303.949767548741	631.350305357878	1119.267421987008	210.814316291446	572.030982733238	993.583280831381	43.912845857499	539.061804806429	1164.642237682160	98.420566370792	579.957044789629	1074.768366582762	37.633404712623	615.589749734031	1283.399962341713	43.480146532670	611.513374557645	644.237517190618	155.878265776006	373.349744151679	700.440727074507	103.546281303777	297.975641255173	804.374207945679	116.801258815784	316.000967687332	885.537982070755	32.390060913755	301.311694927571	1046.063438338212	1078.264896149172	157.235446244575	1293.699127321965	1018.050734843875	179.491149428703	916.977499889517	1126.182488676074	736.060499307620	892.757704280502	864.281762907586	732.949572490174	
90	40.269857142857	854.833702631050	1006.338420733181	475.498939326885	1060.728337074491	1423.879503086096	286.128766909692	1153.281993871882	1353.230808676857	453.803540425658	1065.015789408447	1438.244881564793	620.201281015879	1058.487017816165	1487.687135147071	439.336727369581	1076.675359038466	940.102399868850	602.674935597486	1071.725441098123	950.850410878982	327.914916301577	1135.321132519913	750.178449377155	578.586229035487	1060.811634398262	635.239465493993	635.971386790368	1146.641658627686	589.231164635481	560.118671323902	1157.307203919020	499.921817310681	568.172316471377	1097.776428808592	731.364194580397	348.281018730006	1003.897503148437	624.459938636000	278.375455769760	1085.777228269806	533.068091711570	332.939455856843	1072.368811326654	448.678661458743	328.338673094288	1000.934912567908	395.882516903712	322.725516867238	858.150563467233	358.710296867519	276.251763315413	840.381432150707	229.873560727990	331.064780002376	1132.418085732465	410.401143292241	573.851081126030	1063.421753019420	303.844249249972	632.307617289802	1112.654293833389	210.559978811485	572.506704261086	985.688395531157	44.003467146551	539.188892069018	1156.881582104332	98.580046774798	580.199361982556	1066.824932597474	37.680855654686	615.695884605069	1275.463359843064	43.165173286073	611.787407885579	648.316692220666	173.179970301533	371.958383746507	700.751021034363	116.307839278294	297.035214770479	805.318511637325	121.665875434020	315.263366440486	878.466729217154	30.757311934355	301.458282060879	1039.662199867981	1077.948626964442	161.998714958615	1285.035788574899	1006.076247869150	182.337634376775	923.168945183891	1124.455513967274	738.728925572712	909.211646742135	861.869800446814	734.743073864422	
91	40.281428571429	855.306355511954	1007.109290504043	478.655618108921	1059.855744828892	1424.384725704632	287.769924083783	1153.411931578056	1354.222495198316	455.113604899479	1065.798912347794	1439.290685741453	621.829644968667	1058.072740599681	1488.400483626461	440.954695563876	1077.477940049844	940.959739663631	605.170273968058	1072.279734370678	951.569409513916	330.540092822388	1134.252479819521	749.335707298999	581.852915497643	1057.934133946178	635.137656699296	638.162822267732	1143.437050229682	588.495269448688	562.284300348634	1152.852542830854	499.138047311912	569.723670631295	1103.120217687897	733.742821333803	351.366271494633	1014.048807287158	624.798481633318	279.829450023308	1098.029649277420	535.156820818351	335.308514232086	1085.927503552489	449.700699264204	329.997635364444	1012.940056125147	397.013116462145	323.897470464202	869.190483582863	364.622617208814	276.576072524087	847.189631126594	236.226327891948	330.719490110929	1127.376345498497	409.863416730198	575.147354076875	1057.565136954172	303.678740945885	633.227372118477	1106.015591105236	210.253735676185	572.968129727450	977.752443236882	44.095101542315	539.290779067087	1149.074233746762	98.684386969861	580.409105482177	1058.842641307000	37.707938235586	615.772416093647	1267.497883643036	42.795810695658	611.997821985834	653.844058248614	190.541561767168	370.615664888544	702.441873845459	129.567989489485	296.088895050930	807.190314216111	127.156260074783	314.731163436421	872.100558203032	29.123216073441	301.533025172001	1033.434769288732	1077.436147089347	166.649365599277	1275.683641208226	993.027005801456	185.160240999983	929.424568630440	1122.633704936594	741.435730382070	926.722643377799	859.736738752375	736.699436806443	
92	40.293000000000	855.578552743699	1007.697537272323	481.659357937113	1058.711814715412	1424.658995099953	289.270654997792	1153.376002829665	1355.001976939883	456.252914708631	1066.474175523071	1440.117697524777	623.323852623662	1057.534084020673	1488.926755946513	442.452349069029	1078.122846880582	941.613279169245	607.534169829353	1072.572127758088	952.034245529002	333.043809050902	1133.116585480954	748.457593086158	584.948516009478	1055.127651036014	634.983661225649	640.263701497107	1140.291280197655	587.737804210459	564.368762167059	1148.408363307594	498.326132795524	571.259486655435	1108.361987421492	736.290902949538	354.461458486902	1024.167529044201	625.445286878881	281.336113440802	1110.026923924196	537.677987097816	337.978229731571	1099.421603603624	451.222686215203	332.123453580759	1025.125921718306	398.483164883535	325.434136373135	880.728323411068	370.473253667816	277.019934048808	854.714031650839	242.661111787966	330.675291311316	1122.349052576104	409.272124308678	576.399469471669	1051.701209400431	303.483413217953	634.118845478799	1099.367912411754	209.905173020880	573.415916853093	969.770989086806	44.192538550853	539.383839791404	1141.196898357776	98.709648148635	580.579287286143	1050.819188008036	37.724078837515	615.837044190323	1259.499553693109	42.399309609330	612.164192610252	660.689171281260	207.388304586469	369.399082942582	705.569796317351	142.869814101415	295.182916581407	810.110609927398	133.141754455914	314.375973631917	866.866199903071	27.671115286871	301.487310641554	1027.455904357855	1076.718442219163	171.194273723103	1265.535869904673	978.963888077065	187.943018864282	935.814806289044	1120.687830975189	744.150115135692	945.234257683203	857.976430913435	738.722457235762	
